<?xml version="1.0" encoding="UTF-8"?>
<svg width="20px" height="24px" viewBox="0 0 20 24" version="1.1" xmlns="http://www.w3.org/2000/svg" xmlns:xlink="http://www.w3.org/1999/xlink">
    <!-- Generator: Sketch 62 (91390) - https://sketch.com -->
    <title>icon 7</title>
    <desc>Created with Sketch.</desc>
    <g id="Page-1" stroke="none" stroke-width="1" fill="none" fill-rule="evenodd">
        <g id="07.Accounting-&amp;-Taxes" transform="translate(-270.000000, -653.000000)" fill="#01B289" fill-rule="nonzero">
            <g id="Features" transform="translate(250.000000, 124.000000)">
                <g id="Accounting" transform="translate(20.000000, 510.000000)">
                    <g id="icon-7" transform="translate(0.000000, 19.000000)">
                        <g id="noun_Document_1740739">
                            <g>
                                <path d="M14.6476,0.4 L1.7524,0.4 C1.45495036,0.4 1.17050429,0.520597129 0.962573081,0.733880919 C0.756758183,0.944993916 0.642772721,1.22952364 0.644760962,1.52478894 L0.644760962,22.4793333 C0.642772721,22.7704764 0.756758183,23.0550061 0.962573081,23.2661191 C1.17050429,23.4794029 1.45495036,23.6 1.7524,23.6 L18.2476,23.6 C18.5450496,23.6 18.8294957,23.4794029 19.0374269,23.2661191 C19.2432418,23.0550061 19.3572273,22.7704764 19.3552252,22.4752111 L19.3552252,5.4 C19.3552252,5.24800079 19.2975235,5.10166656 19.1937989,4.99055865 L15.0861861,0.590558651 C14.9727129,0.469008174 14.813885,0.4 14.6476,0.4 Z M14.387,1.6 L18.155,5.637 L18.155,22.4 L1.844,22.4 L1.844,1.6 L14.387,1.6 Z" id="Path"></path>
                                <path d="M13.87,0.4 C14.1682338,0.4 14.4156468,0.617589612 14.462147,0.902676883 L14.47,1 L14.469,5.393 L18.73,5.394 C19.0282338,5.394 19.2756468,5.61158961 19.322147,5.89667688 L19.33,5.994 C19.33,6.29223376 19.1124104,6.53964675 18.8273231,6.58614701 L18.73,6.594 L14.3100159,6.59358113 C13.7933016,6.61289894 13.356444,6.23612441 13.2806196,5.71536902 L13.27,5.60166667 L13.27,1 C13.27,0.66862915 13.5386292,0.4 13.87,0.4 Z" id="Path"></path>
                                <path d="M13.6491714,9.83254128 C13.8742046,9.58929925 14.2538167,9.57453812 14.4970587,9.79957136 C14.7132739,9.9996009 14.7489609,10.3217668 14.596174,10.5617264 L14.5300286,10.6474587 L6.89082864,18.9047921 C6.6657954,19.1480341 6.2861833,19.1627952 6.04294128,18.937762 C5.82672615,18.7377324 5.79103912,18.4155665 5.94382603,18.1756069 L6.00997136,18.0898746 L13.6491714,9.83254128 Z" id="Path"></path>
                                <path d="M7.2172,9.65466667 C6.08804985,9.65466667 5.1772,10.5823841 5.1772,11.7213333 C5.1772,12.8602826 6.08804985,13.788 7.2172,13.788 C8.34635015,13.788 9.2572,12.8602826 9.2572,11.7213333 C9.2572,10.5823841 8.34635015,9.65466667 7.2172,9.65466667 Z M7.2172,10.8546667 C7.67862993,10.8546667 8.0572,11.2402473 8.0572,11.7213333 C8.0572,12.2024194 7.67862993,12.588 7.2172,12.588 C6.75577007,12.588 6.3772,12.2024194 6.3772,11.7213333 C6.3772,11.2402473 6.75577007,10.8546667 7.2172,10.8546667 Z" id="Oval"></path>
                                <path d="M12.7828,15.118 C11.6536498,15.118 10.7428,16.0457174 10.7428,17.1846667 C10.7428,18.3236159 11.6536498,19.2513333 12.7828,19.2513333 C13.9119502,19.2513333 14.8228,18.3236159 14.8228,17.1846667 C14.8228,16.0457174 13.9119502,15.118 12.7828,15.118 Z M12.7828,16.318 C13.2442299,16.318 13.6228,16.7035806 13.6228,17.1846667 C13.6228,17.6657527 13.2442299,18.0513333 12.7828,18.0513333 C12.3213701,18.0513333 11.9428,17.6657527 11.9428,17.1846667 C11.9428,16.7035806 12.3213701,16.318 12.7828,16.318 Z" id="Oval"></path>
                            </g>
                        </g>
                    </g>
                </g>
            </g>
        </g>
    </g>
</svg>